<svg width="24" height="24" viewBox="0 0 24 24" fill="none" xmlns="http://www.w3.org/2000/svg">
<path d="M20.2521 21.3464H3.74791C3.66189 21.3464 3.5794 21.3122 3.51858 21.2514C3.45775 21.1905 3.42358 21.108 3.42358 21.022V13.9488C3.42358 13.8628 3.45775 13.7803 3.51858 13.7195C3.5794 13.6587 3.66189 13.6245 3.74791 13.6245C3.83392 13.6245 3.91642 13.6587 3.97724 13.7195C4.03806 13.7803 4.07223 13.8628 4.07223 13.9488V20.6977H19.9278V13.9488C19.9278 13.8628 19.962 13.7803 20.0228 13.7195C20.0836 13.6587 20.1661 13.6245 20.2521 13.6245C20.3381 13.6245 20.4206 13.6587 20.4815 13.7195C20.5423 13.7803 20.5765 13.8628 20.5765 13.9488V21.022C20.5765 21.108 20.5423 21.1905 20.4815 21.2514C20.4206 21.3122 20.3381 21.3464 20.2521 21.3464Z" fill="black"/>
<path d="M13.0317 9.5579C12.9456 9.5579 12.8631 9.52373 12.8023 9.46291C12.7415 9.40208 12.7073 9.31959 12.7073 9.23357V5.15487H11.2926V9.23357C11.2926 9.31959 11.2585 9.40208 11.1976 9.46291C11.1368 9.52373 11.0543 9.5579 10.9683 9.5579C10.8823 9.5579 10.7998 9.52373 10.739 9.46291C10.6782 9.40208 10.644 9.31959 10.644 9.23357V5.12438C10.6442 4.96023 10.7094 4.80285 10.8255 4.68678C10.9416 4.57071 11.099 4.50542 11.2631 4.50525H12.7365C12.9007 4.50533 13.0582 4.57058 13.1743 4.68666C13.2905 4.80275 13.3558 4.96018 13.356 5.12438V9.23357C13.356 9.31959 13.3218 9.40208 13.261 9.46291C13.2002 9.52373 13.1177 9.5579 13.0317 9.5579Z" fill="black"/>
<path d="M12 4.25292C11.6849 4.25257 11.3829 4.12726 11.1601 3.90448C10.9373 3.6817 10.812 3.37965 10.8116 3.06459C10.8116 2.54567 11.5021 1.20848 11.7136 0.810537C11.7439 0.761945 11.7861 0.721873 11.8362 0.694092C11.8863 0.66631 11.9427 0.651733 12 0.651733C12.0573 0.651733 12.1136 0.66631 12.1637 0.694092C12.2138 0.721873 12.256 0.761945 12.2863 0.810537C12.4978 1.20848 13.1883 2.54697 13.1883 3.06459C13.188 3.37965 13.0626 3.6817 12.8399 3.90448C12.6171 4.12726 12.315 4.25257 12 4.25292ZM12 1.6794C11.7607 2.11575 11.5793 2.5814 11.4603 3.06459C11.4603 3.20772 11.5172 3.34499 11.6184 3.4462C11.7196 3.54741 11.8568 3.60427 12 3.60427C12.1431 3.60427 12.2804 3.54741 12.3816 3.4462C12.4828 3.34499 12.5396 3.20772 12.5396 3.06459C12.4206 2.5814 12.2392 2.11575 12 1.6794Z" fill="black"/>
<path d="M12 5.15679C11.914 5.15679 11.8315 5.12262 11.7707 5.0618C11.7098 5.00097 11.6757 4.91848 11.6757 4.83246V3.92857C11.6757 3.84256 11.7098 3.76006 11.7707 3.69924C11.8315 3.63842 11.914 3.60425 12 3.60425C12.086 3.60425 12.1685 3.63842 12.2293 3.69924C12.2901 3.76006 12.3243 3.84256 12.3243 3.92857V4.83246C12.3243 4.91848 12.2901 5.00097 12.2293 5.0618C12.1685 5.12262 12.086 5.15679 12 5.15679Z" fill="black"/>
<path d="M15.1459 14.2732C14.4966 14.2804 13.8675 14.0473 13.3797 13.6187C13.0006 13.2808 12.5104 13.094 12.0026 13.094C11.4947 13.094 11.0046 13.2808 10.6255 13.6187C10.1337 14.041 9.50696 14.2731 8.85875 14.2731C8.21054 14.2731 7.58378 14.041 7.09199 13.6187C6.71247 13.2806 6.22191 13.0937 5.71361 13.0937C5.20532 13.0937 4.71476 13.2806 4.33524 13.6187C4.05166 13.8538 3.72829 14.0362 3.38043 14.1574C3.24888 14.1985 3.10951 14.2082 2.97353 14.1857C2.83755 14.1632 2.70876 14.109 2.59751 14.0277C2.48756 13.9476 2.39823 13.8426 2.33687 13.7213C2.27552 13.5999 2.24391 13.4657 2.24464 13.3297V10.7069C2.24524 10.2303 2.43488 9.77329 2.77196 9.43627C3.10904 9.09925 3.56604 8.90969 4.0427 8.90918H19.9573C20.434 8.90969 20.8909 9.09925 21.228 9.43627C21.5651 9.77329 21.7547 10.2303 21.7553 10.7069V13.3297C21.756 13.4658 21.7242 13.6002 21.6627 13.7216C21.6012 13.843 21.5117 13.948 21.4015 14.028C21.2907 14.1101 21.1619 14.1646 21.0258 14.1872C20.8898 14.2097 20.7503 14.1996 20.6189 14.1577C20.2715 14.0366 19.9486 13.8543 19.6654 13.6193C19.2865 13.2816 18.7966 13.0949 18.289 13.0949C17.7814 13.0949 17.2915 13.2816 16.9125 13.6193C16.4245 14.0478 15.7953 14.2807 15.1459 14.2732ZM12.0023 12.4456C12.6516 12.4384 13.2807 12.6715 13.7685 13.1001C14.1477 13.438 14.6379 13.6247 15.1458 13.6247C15.6537 13.6247 16.1438 13.438 16.523 13.1001C17.0144 12.6778 17.6409 12.4457 18.2888 12.4457C18.9367 12.4457 19.5632 12.6778 20.0546 13.1001C20.2797 13.29 20.5368 13.4385 20.8138 13.5386C20.848 13.5497 20.8843 13.5526 20.9197 13.5469C20.9552 13.5413 20.9888 13.5273 21.0178 13.5062C21.0457 13.4862 21.0683 13.4599 21.0838 13.4293C21.0992 13.3988 21.1071 13.3649 21.1067 13.3307V10.7069C21.1063 10.4022 20.985 10.1102 20.7696 9.89475C20.5541 9.67934 20.262 9.55817 19.9573 9.55783H4.0427C3.73802 9.55817 3.44591 9.67934 3.23044 9.89475C3.01497 10.1102 2.89372 10.4022 2.89329 10.7069V13.3297C2.89299 13.3639 2.90087 13.3976 2.91627 13.4281C2.93168 13.4585 2.95416 13.4849 2.98183 13.5049C3.01092 13.5261 3.04465 13.5401 3.08024 13.5458C3.11582 13.5514 3.15224 13.5485 3.18648 13.5373C3.46398 13.4372 3.7215 13.2886 3.94702 13.0985C4.43507 12.6698 5.06439 12.4367 5.71394 12.444C6.36349 12.4367 6.99281 12.6698 7.48086 13.0985C7.8601 13.4364 8.35032 13.6231 8.85826 13.6231C9.36621 13.6231 9.85643 13.4364 10.2357 13.0985C10.7239 12.6704 11.353 12.4379 12.0023 12.4456Z" fill="black"/>
<path d="M20.2521 18.252C19.5813 18.2614 18.9291 18.0314 18.4125 17.6034C18.0018 17.2614 17.4843 17.0742 16.9498 17.0742C16.4154 17.0742 15.8979 17.2614 15.4871 17.6034C14.9665 18.0239 14.3175 18.2532 13.6482 18.2532C12.979 18.2532 12.3299 18.0239 11.8093 17.6034C11.3989 17.2615 10.8817 17.0743 10.3476 17.0743C9.81345 17.0743 9.29622 17.2615 8.88583 17.6034C8.36942 18.0313 7.71749 18.2612 7.04691 18.252C6.3765 18.2614 5.72471 18.0314 5.20864 17.6034C4.80271 17.2541 4.28271 17.0658 3.74724 17.0744C3.66122 17.0744 3.57873 17.0402 3.51791 16.9794C3.45708 16.9186 3.42291 16.8361 3.42291 16.7501C3.42291 16.6641 3.45708 16.5816 3.51791 16.5207C3.57873 16.4599 3.66122 16.4258 3.74724 16.4258C4.41765 16.4164 5.06944 16.6464 5.58551 17.0744C5.9959 17.4162 6.51312 17.6034 7.04724 17.6034C7.58135 17.6034 8.09857 17.4162 8.50897 17.0744C9.02951 16.6539 9.67843 16.4246 10.3476 16.4246C11.0167 16.4246 11.6656 16.6539 12.1862 17.0744C12.5967 17.4162 13.114 17.6034 13.6482 17.6034C14.1824 17.6034 14.6997 17.4162 15.1103 17.0744C15.6312 16.6539 16.2804 16.4246 16.9498 16.4246C17.6193 16.4246 18.2685 16.6539 18.7894 17.0744C19.1957 17.4239 19.7162 17.6121 20.2521 17.6034C20.3381 17.6034 20.4206 17.6375 20.4814 17.6984C20.5423 17.7592 20.5764 17.8417 20.5764 17.9277C20.5764 18.0137 20.5423 18.0962 20.4814 18.157C20.4206 18.2179 20.3381 18.252 20.2521 18.252Z" fill="black"/>
<path d="M21.6902 23.3514H2.30986C2.22384 23.3514 2.14135 23.3172 2.08053 23.2564C2.0197 23.1956 1.98553 23.1131 1.98553 23.0271V21.6905C1.98579 21.4273 2.09047 21.1749 2.27659 20.9888C2.46271 20.8027 2.71507 20.698 2.97829 20.6978H21.0218C21.285 20.698 21.5373 20.8027 21.7235 20.9888C21.9096 21.1749 22.0142 21.4273 22.0145 21.6905V23.0271C22.0145 23.1131 21.9803 23.1956 21.9195 23.2564C21.8587 23.3172 21.7762 23.3514 21.6902 23.3514ZM2.63418 22.7027H21.3659V21.6905C21.3658 21.5993 21.3295 21.5118 21.265 21.4473C21.2005 21.3828 21.113 21.3465 21.0218 21.3464H2.97829C2.88705 21.3465 2.79958 21.3828 2.73507 21.4473C2.67055 21.5118 2.63427 21.5993 2.63418 21.6905V22.7027Z" fill="black"/>
</svg>
