<svg width="10" height="10" viewBox="0 0 10 10" fill="none" xmlns="http://www.w3.org/2000/svg">
<g clip-path="url(#clip0_499_966)">
<path d="M6.07422 10H2.34375C1.48216 10 0.78125 9.29909 0.78125 8.4375V3.14453C0.78125 2.28294 1.48216 1.58203 2.34375 1.58203H6.07422C6.93581 1.58203 7.63672 2.28294 7.63672 3.14453V8.4375C7.63672 9.29909 6.93581 10 6.07422 10ZM2.34375 2.36328C1.91299 2.36328 1.5625 2.71378 1.5625 3.14453V8.4375C1.5625 8.86826 1.91299 9.21875 2.34375 9.21875H6.07422C6.50497 9.21875 6.85547 8.86826 6.85547 8.4375V3.14453C6.85547 2.71378 6.50497 2.36328 6.07422 2.36328H2.34375ZM9.19922 7.46094V1.5625C9.19922 0.700912 8.49831 0 7.63672 0H3.30078C3.08502 0 2.91016 0.174866 2.91016 0.390625C2.91016 0.606384 3.08502 0.78125 3.30078 0.78125H7.63672C8.06747 0.78125 8.41797 1.13174 8.41797 1.5625V7.46094C8.41797 7.6767 8.59283 7.85156 8.80859 7.85156C9.02435 7.85156 9.19922 7.6767 9.19922 7.46094Z" fill="white"/>
</g>
<defs>
<clipPath id="clip0_499_966">
<rect width="10" height="10" fill="white"/>
</clipPath>
</defs>
</svg>
