<svg width="24" height="24" viewBox="0 0 24 24" fill="none" xmlns="http://www.w3.org/2000/svg">
<path d="M0.462019 15.1504C0.205613 15.1504 0.000488281 15.3555 0.000488281 15.6119C0.000488281 15.8683 0.205613 16.0734 0.462019 16.0734H2.8466V17.3554C2.8466 17.5349 2.94916 17.6888 3.103 17.7657L13.231 22.5348C13.3592 22.5861 13.4874 22.5861 13.6157 22.5348L23.7437 17.7657C23.8975 17.6888 24.0001 17.5349 24.0001 17.3554V6.66331C24.0001 6.48382 23.8719 6.32998 23.7437 6.25306C23.6924 6.22742 17.8464 3.45823 13.6157 1.4839C13.4874 1.43262 13.3592 1.43262 13.231 1.4839L3.103 6.25306C2.9748 6.30434 2.8466 6.48382 2.8466 6.66331V9.07352H0.462019C0.205613 9.07352 0.000488281 9.27865 0.000488281 9.53506C0.000488281 9.79146 0.205613 9.99659 0.462019 9.99659H2.8466V12.1504H1.79533C1.53892 12.1504 1.3338 12.3555 1.3338 12.6119C1.3338 12.8683 1.53892 13.0735 1.79533 13.0735H2.8466V15.2273H0.462019V15.1504ZM23.1027 17.0478L13.8721 21.4067V11.7145C16.0259 10.6889 13.4875 11.894 23.1027 7.3556V17.0478ZM22.4873 6.66331C6.15423 14.3811 24.3334 5.79153 13.4105 10.9453L9.41059 9.04788L18.4874 4.7659L22.4873 6.66331ZM13.4105 2.38132L17.4105 4.27873L8.35933 8.53507L4.35939 6.63767L13.4105 2.38132ZM3.74402 16.0478H6.00039C6.2568 16.0478 6.46192 15.8426 6.46192 15.5862C6.46192 15.3298 6.2568 15.1247 6.00039 15.1247H3.74402V13.0222H6.69269C6.94909 13.0222 7.15422 12.8171 7.15422 12.5606C7.15422 12.3042 6.94909 12.0991 6.69269 12.0991H3.74402V9.94531H4.51324C4.76964 9.94531 4.97477 9.74018 4.97477 9.48377C4.97477 9.22737 4.76964 9.02224 4.51324 9.02224H3.74402V7.30432L12.9746 11.6632V21.3554L3.74402 16.9965V16.0478Z" fill="black"/>
<path d="M15.3337 19.5862L19.1798 17.7914C19.3337 17.7145 19.4362 17.5606 19.4362 17.3811V15.0735C19.4362 14.7145 19.0772 14.535 18.7952 14.6632L14.9747 16.4581C14.8209 16.535 14.7183 16.6888 14.7183 16.8683V19.176C14.6927 19.5093 15.0517 19.7401 15.3337 19.5862ZM15.5901 17.1504L18.5132 15.7658V17.0734L15.5901 18.4837V17.1504Z" fill="black"/>
</svg>
