<svg width="20" height="20" viewBox="0 0 20 20" fill="none" xmlns="http://www.w3.org/2000/svg">
<path d="M19.8981 4.20495C19.8631 4.16784 19.8209 4.13828 19.7741 4.11808C19.7272 4.09789 19.6768 4.08748 19.6258 4.08751H15.0401V2.85927C15.0392 2.10121 14.7377 1.37443 14.2017 0.838399C13.6656 0.302366 12.9389 0.000849246 12.1808 0H7.81949C7.06138 0.000792637 6.33456 0.302284 5.79848 0.838323C5.2624 1.37436 4.96085 2.10117 4.96 2.85927V4.08751H0.374304C0.323336 4.08755 0.272912 4.09798 0.226118 4.11818C0.179323 4.13838 0.137144 4.16791 0.102161 4.20498C0.0671779 4.24204 0.0401278 4.28586 0.0226666 4.33374C0.00520534 4.38163 -0.00229941 4.43257 0.000611348 4.48345L0.689814 16.4701C0.745557 17.4241 1.16366 18.3209 1.85864 18.9769C2.55361 19.633 3.47295 19.9988 4.42866 19.9995H15.5716C16.5273 19.9988 17.4467 19.633 18.1416 18.977C18.8366 18.3209 19.2546 17.4241 19.3103 16.4701L19.9995 4.48345C20.0023 4.43264 19.9948 4.38178 19.9774 4.33397C19.96 4.28615 19.933 4.2424 19.8981 4.20538M5.70867 2.85927C5.70935 2.29968 5.93196 1.7632 6.32768 1.36752C6.72339 0.97185 7.25989 0.749291 7.81949 0.748668H12.1808C12.7404 0.749291 13.2769 0.971857 13.6725 1.36754C14.0682 1.76322 14.2908 2.29969 14.2914 2.85927V4.08751H5.70867V2.85927ZM18.5629 16.4271C18.5183 17.1903 18.1837 17.9078 17.6277 18.4326C17.0717 18.9574 16.3362 19.2501 15.5716 19.2506H4.42866C3.66405 19.2501 2.92852 18.9575 2.37247 18.4326C1.81643 17.9078 1.48187 17.1904 1.4372 16.4271L0.770884 4.83618H4.96V7.19641C4.96 7.29569 4.99944 7.3909 5.06964 7.4611C5.13984 7.53131 5.23506 7.57074 5.33434 7.57074C5.43361 7.57074 5.52883 7.53131 5.59903 7.4611C5.66923 7.3909 5.70867 7.29569 5.70867 7.19641V4.83618H14.2914V7.19641C14.2914 7.29569 14.3308 7.3909 14.401 7.4611C14.4712 7.53131 14.5665 7.57074 14.6657 7.57074C14.765 7.57074 14.8602 7.53131 14.9304 7.4611C15.0006 7.3909 15.0401 7.29569 15.0401 7.19641V4.83618H19.2294L18.5629 16.4271Z" fill="black"/>
</svg>
