<svg width="24" height="24" viewBox="0 0 24 24" fill="none" xmlns="http://www.w3.org/2000/svg">
<path d="M12.227 14.517L15.5521 11.1918C16.0371 10.7069 16.014 9.94487 15.5521 9.48304C15.0903 9.02121 14.3283 8.97502 13.8203 9.48304L11.3726 11.9538L10.1718 10.7531C9.70999 10.2681 8.97107 10.2912 8.50924 10.7069C8.00122 11.1687 7.97813 11.9769 8.46305 12.4618L10.5182 14.517C11.0031 14.9788 11.7651 14.9788 12.227 14.517ZM9.01725 11.3073C9.17889 11.1456 9.43289 11.1456 9.59453 11.3073L11.0724 12.7851C11.234 12.9468 11.488 12.9468 11.6497 12.7851L14.3976 10.0372C14.5592 9.87559 14.8132 9.87559 14.9748 10.0372C15.1365 10.1989 15.1365 10.476 14.9748 10.6145L11.6497 13.9397C11.488 14.1013 11.234 14.1013 11.0724 13.9397L9.01725 11.8845C8.85561 11.7229 8.85561 11.4689 9.01725 11.3073Z" fill="black"/>
<path d="M19.7088 11.9999C19.6857 7.75107 16.2451 4.31044 11.9962 4.28735C7.74741 4.28735 4.28369 7.72798 4.28369 11.9999C4.28369 16.2718 7.74741 19.7125 11.9962 19.7125C16.2451 19.7125 19.7088 16.2487 19.7088 11.9999ZM5.09189 11.9999C5.09189 8.18981 8.18615 5.09555 11.9962 5.09555C15.8063 5.09555 18.9006 8.18981 18.9006 11.9999C18.8775 15.81 15.8063 18.8812 11.9962 18.9043C8.18615 18.9043 5.09189 15.81 5.09189 11.9999Z" fill="black"/>
<path d="M0.542664 11.9999C0.542664 13.3161 2.13597 14.2167 2.41307 15.1172C2.71326 16.064 1.97433 17.7035 2.73635 18.7426C3.49837 19.8048 5.29951 19.5739 6.08462 20.1743C6.86973 20.7516 7.2161 22.5296 8.46304 22.9222C9.66379 23.3147 11.0031 22.0909 12.0191 22.0909C13.0121 22.0909 14.3745 23.3147 15.5752 22.9222C16.8221 22.5065 17.1685 20.7516 17.9536 20.1743C18.7618 19.597 20.5399 19.8048 21.3019 18.7426C22.0639 17.7035 21.3019 16.064 21.6252 15.1172C21.9023 14.2167 23.4956 13.3161 23.4956 11.9999C23.4956 10.6837 21.9023 9.78312 21.6252 8.88255C21.325 7.9358 22.0639 6.2963 21.3019 5.25719C20.5399 4.19498 18.7387 4.4259 17.9536 3.82552C17.1685 3.24823 16.8221 1.47019 15.5752 1.07763C14.3745 0.685079 13.0351 1.90893 12.0191 1.90893C11.0031 1.90893 9.66379 0.685079 8.46304 1.07763C7.2161 1.49328 6.86973 3.24823 6.08462 3.82552C5.27641 4.4028 3.49837 4.19498 2.73635 5.25719C1.97433 6.2963 2.73635 7.9358 2.41307 8.88255C2.11288 9.78312 0.542664 10.6837 0.542664 11.9999ZM3.10582 9.13655C3.47528 8.00507 2.80563 6.43485 3.31364 5.74211C3.82165 5.04937 5.53042 5.18791 6.50026 4.49517C7.44701 3.80243 7.81647 2.11675 8.67086 1.86274C9.47906 1.60874 10.7491 2.71713 11.9729 2.71713C13.1737 2.71713 14.4668 1.58565 15.275 1.86274C16.1063 2.13984 16.4989 3.82552 17.4456 4.49517C18.3924 5.18791 20.1242 5.02627 20.6322 5.74211C21.1403 6.43485 20.4706 8.00507 20.8401 9.13655C21.1864 10.2219 22.6874 11.0993 22.6874 11.9999C22.6874 12.9005 21.1864 13.7779 20.8401 14.8632C20.4706 15.9947 21.1403 17.5649 20.6322 18.2577C20.1242 18.9504 18.4155 18.8119 17.4456 19.5046C16.4989 20.1974 16.1294 21.883 15.275 22.137C14.4668 22.3911 13.1968 21.2827 11.9729 21.2827C10.7722 21.2827 9.47906 22.4141 8.67086 22.137C7.83957 21.86 7.44701 20.1743 6.50026 19.5046C5.55351 18.8119 3.82165 18.9735 3.31364 18.2577C2.80563 17.5649 3.47528 15.9947 3.10582 14.8632C2.75944 13.7779 1.2585 12.9005 1.2585 11.9999C1.2585 11.0993 2.73635 10.2219 3.10582 9.13655Z" fill="black"/>
</svg>
