<svg width="19" height="17" viewBox="0 0 19 17" fill="none" xmlns="http://www.w3.org/2000/svg">
<path d="M15.2758 7.66673L15.638 7.66673L15.3819 7.41067L10.6995 2.72831C10.5287 2.55094 10.4342 2.31365 10.4363 2.06736C10.4385 1.82066 10.5374 1.58466 10.7119 1.41021C10.8863 1.23575 11.1223 1.1368 11.369 1.13465C11.6153 1.13251 11.8526 1.22703 12.03 1.39787L18.5745 7.94242C18.5745 7.94243 18.5745 7.94243 18.5745 7.94244C18.7509 8.11889 18.85 8.35816 18.85 8.60765C18.85 8.85715 18.7509 9.09643 18.5745 9.27288L12.03 15.8174C11.8526 15.9883 11.6153 16.0828 11.369 16.0806C11.1223 16.0785 10.8863 15.9796 10.7119 15.8051C10.5374 15.6306 10.4385 15.3946 10.4363 15.1479C10.4342 14.9016 10.5287 14.6643 10.6996 14.487L15.3819 9.80464L15.638 9.54857L15.2758 9.54857L1.54552 9.54857C1.29597 9.54857 1.05664 9.44944 0.880186 9.27298C0.703729 9.09653 0.604597 8.8572 0.604597 8.60765C0.604597 8.3581 0.703729 8.11878 0.880186 7.94232C1.05664 7.76586 1.29597 7.66673 1.54552 7.66673L15.2758 7.66673Z" fill="black" stroke="white" stroke-width="0.3"/>
</svg>
