<svg width="24" height="24" viewBox="0 0 24 24" fill="none" xmlns="http://www.w3.org/2000/svg">
<path d="M21.5203 6.50003C20.9902 5.55022 19.3114 5.66067 18.8476 5.15263C18.3175 4.55624 18.4279 3.01004 17.5002 2.47991C16.5945 1.94979 15.2471 2.81124 14.4961 2.65662C13.8335 2.502 13.0825 0.999977 12.0001 0.999977C10.8736 0.999977 10.2109 2.47991 9.5041 2.65662C8.81936 2.87751 7.47195 1.9277 6.50006 2.47991C5.55025 3.01004 5.66069 4.68877 5.15265 5.15263C4.55626 5.68276 3.01006 5.57231 2.47994 6.50003C1.94981 7.40567 2.81126 8.75307 2.65664 9.50408C2.50202 10.1667 1 10.9178 1 12.0001C1 13.1266 2.47994 13.7893 2.65664 14.4961C2.87753 15.1808 1.92772 16.5283 2.47994 17.5002C3.01006 18.45 4.62253 18.3174 5.15265 18.8476C5.68278 19.3777 5.55025 20.9901 6.50006 21.5203C7.40569 22.0504 8.75309 21.1889 9.5041 21.3436C10.1668 21.4982 10.9178 23.0002 12.0001 23.0002C13.1266 23.0002 13.8114 21.5203 14.4961 21.3436C15.1809 21.1227 16.5283 22.0725 17.5002 21.5203C18.45 20.9901 18.3175 19.3777 18.8476 18.8476C19.3777 18.3174 20.9902 18.45 21.5203 17.5002C22.0504 16.5945 21.189 15.2471 21.3436 14.4961C21.4982 13.8334 23.0002 13.0824 23.0002 12.0001C23.0002 10.8736 21.5203 10.2109 21.3436 9.50408C21.1227 8.81934 22.0725 7.47193 21.5203 6.50003ZM22.205 12.0001C22.205 12.6848 20.8135 13.3696 20.5926 14.2973C20.3275 15.2913 21.189 16.5945 20.8576 17.1026C20.5484 17.6327 18.9801 17.5885 18.2954 18.2733C17.5885 18.9801 17.6548 20.5263 17.1247 20.8355C16.5945 21.1448 15.2692 20.3275 14.3194 20.5705C13.3696 20.8355 12.6628 22.1829 12.0222 22.1829C11.3375 22.1829 10.6527 20.7913 9.72499 20.5705C8.90771 20.3054 7.40569 21.1448 6.91974 20.8355C6.38961 20.5263 6.43379 18.958 5.74905 18.2733C5.04221 17.5664 3.49601 17.6327 3.18677 17.1026C2.87753 16.5724 3.69481 15.2692 3.45183 14.2973C3.18677 13.3475 1.83937 12.6407 1.83937 12.0001C1.83937 11.3153 3.23095 10.6306 3.45183 9.70288C3.69481 8.77516 2.87753 7.38358 3.18677 6.89763C3.49601 6.3675 5.0643 6.41168 5.74905 5.72693C6.45588 5.0201 6.38961 3.4739 6.91974 3.16466C7.44987 2.85542 8.77518 3.6727 9.72499 3.42972C10.6748 3.16466 11.3816 1.81725 12.0222 1.81725C12.7069 1.81725 13.3917 3.20884 14.3194 3.42972C15.2471 3.6727 16.6387 2.85542 17.1247 3.16466C17.6548 3.4739 17.6106 5.04219 18.2954 5.72693C19.0022 6.43377 20.5484 6.3675 20.8576 6.89763C21.1669 7.42776 20.3496 8.75307 20.5926 9.70288C20.8576 10.6527 22.205 11.3595 22.205 12.0001V12.0001Z" fill="black"/>
<path d="M11.7572 9.61447C11.7572 8.75302 11.0503 8.04618 10.1889 8.04618C9.32744 8.04618 8.62061 8.75302 8.62061 9.61447C8.62061 10.498 9.32744 11.1828 10.1889 11.1828C11.0503 11.1828 11.7572 10.4759 11.7572 9.61447ZM9.39371 9.63656C9.39371 9.19479 9.76921 8.84137 10.1889 8.84137C10.6307 8.84137 10.9841 9.19479 10.9841 9.63656C10.9841 10.0783 10.6307 10.4317 10.1889 10.4317C9.74712 10.4317 9.39371 10.0783 9.39371 9.63656Z" fill="black"/>
<path d="M15.38 14.3857C15.38 13.5022 14.6732 12.8174 13.8117 12.8174C12.9502 12.8174 12.2434 13.5242 12.2434 14.3857C12.2434 15.2472 12.9502 15.954 13.8117 15.954C14.6732 15.954 15.38 15.2472 15.38 14.3857ZM13.0165 14.3636C13.0165 13.9218 13.3699 13.5684 13.8117 13.5684C14.2535 13.5684 14.6069 13.9218 14.6069 14.3636C14.6069 14.8054 14.2314 15.1588 13.8117 15.1588C13.3699 15.1588 13.0165 14.8054 13.0165 14.3636Z" fill="black"/>
<path d="M9.659 15.4679L14.894 9.06223C15.0486 8.88552 15.0265 8.64254 14.8498 8.51001C14.6952 8.37748 14.4522 8.39957 14.2976 8.55419L9.06261 14.9599C8.93008 15.1145 8.95217 15.3796 9.10679 15.5121C9.21723 15.6225 9.48229 15.6446 9.659 15.4679V15.4679Z" fill="black"/>
</svg>
