<svg width="24" height="24" viewBox="0 0 24 24" fill="none" xmlns="http://www.w3.org/2000/svg">
<path d="M22.577 18.581C22.812 18.581 23 18.393 23 18.158V5.81834C23 5.5833 22.812 5.39526 22.577 5.39526H1.42332C1.18828 5.39526 1.02375 5.5833 1.00024 5.81834V18.1815C1.00024 18.4165 1.18828 18.581 1.42332 18.6045H22.577V18.581ZM1.84639 6.24141H22.1774V17.7819H1.84639V6.24141Z" fill="black"/>
<path d="M4.83157 16.2777C4.83157 16.5128 5.01961 16.6773 5.25465 16.7008H18.746C18.981 16.7008 19.1691 16.5128 19.1691 16.2777C19.1691 15.4316 19.8507 14.75 20.6968 14.75C20.9319 14.75 21.1199 14.5619 21.1199 14.3269V9.6731C21.1199 9.43806 20.9319 9.25003 20.6968 9.25003C19.8507 9.25003 19.1691 8.56841 19.1691 7.72227C19.1691 7.48723 18.981 7.29919 18.746 7.29919H5.25465C5.01961 7.29919 4.85508 7.48723 4.83157 7.72227C4.83157 8.56841 4.14996 9.25003 3.30381 9.25003C3.06877 9.25003 2.90424 9.43806 2.88074 9.6731V14.3269C2.88074 14.5619 3.06877 14.7265 3.30381 14.75C4.14996 14.75 4.83157 15.4316 4.83157 16.2777ZM3.72688 10.0492C4.71405 9.88464 5.46618 9.10901 5.63071 8.14534H18.3699C18.5344 9.13251 19.3101 9.88464 20.2737 10.0492V13.9508C19.2866 14.1154 18.5344 14.891 18.3699 15.8547H5.63071C5.46618 14.8675 4.69055 14.1154 3.72688 13.9508V10.0492Z" fill="black"/>
<path d="M14.8911 11.9999C14.8911 10.4016 13.5983 9.10889 12.0001 9.10889C10.4018 9.10889 9.13257 10.4016 9.13257 11.9999C9.13257 13.5982 10.4253 14.8674 12.0236 14.8909C13.5983 14.8909 14.8911 13.5982 14.8911 11.9999ZM9.95521 11.9999C9.95521 10.8717 10.8719 9.95503 12.0236 9.95503C13.1518 9.95503 14.0919 10.8717 14.0919 12.0234C14.0919 13.1516 13.1753 14.0917 12.0236 14.0917C10.8719 14.0917 9.95521 13.1281 9.95521 11.9999Z" fill="black"/>
</svg>
